<svg width="835" height="835" viewBox="0 0 835 835" fill="none" xmlns="http://www.w3.org/2000/svg">
<path opacity="0.5" d="M755.442 406.636C755.442 601.285 597.648 759.079 402.999 759.079C208.351 759.079 50.5571 601.285 50.5571 406.636C50.5571 211.988 208.351 54.1938 402.999 54.1938C597.648 54.1938 755.442 211.988 755.442 406.636ZM402.999 759.806C598.05 759.806 756.169 601.686 756.169 406.636C756.169 211.586 598.05 53.4664 402.999 53.4664C207.949 53.4664 49.8296 211.586 49.8296 406.636C49.8296 601.686 207.949 759.806 402.999 759.806ZM683.426 404.818C683.426 559.492 558.038 684.88 403.364 684.88C248.689 684.88 123.301 559.492 123.301 404.818C123.301 250.144 248.689 124.755 403.364 124.755C558.038 124.755 683.426 250.144 683.426 404.818ZM403.364 685.608C558.44 685.608 684.154 559.894 684.154 404.818C684.154 249.742 558.44 124.028 403.364 124.028C248.288 124.028 122.574 249.742 122.574 404.818C122.574 559.894 248.288 685.608 403.364 685.608ZM834.004 417.184C834.004 647.388 647.388 834.004 417.184 834.004C186.981 834.004 0.363718 647.388 0.363718 417.184C0.363718 186.981 186.981 0.363718 417.184 0.363718C647.388 0.363718 834.004 186.981 834.004 417.184Z" stroke="#7B1984" stroke-width="0.727435"/>
</svg>
